<svg xmlns="http://www.w3.org/2000/svg" viewBox="0 0 148 36" fill="none" role="img" aria-labelledby="title">
  <title id="title">Caelis</title>
  <path fill="#f8fafc" fill-rule="evenodd" clip-rule="evenodd" d="
    M 6 6 L 22 6 L 22 10 L 10 10 L 10 26 L 22 26 L 22 30 L 6 30 Z 
    M 28 6 L 44 6 L 44 30 L 40 30 L 40 20 L 32 20 L 32 30 L 28 30 Z M 32 10 L 40 10 L 40 16 L 32 16 Z 
    M 50 6 L 66 6 L 66 10 L 54 10 L 54 16 L 62 16 L 62 20 L 54 20 L 54 26 L 66 26 L 66 30 L 50 30 Z 
    M 72 6 L 76 6 L 76 26 L 88 26 L 88 30 L 72 30 Z 
    M 97 6 L 103 6 L 103 30 L 97 30 Z 
    M 112 6 L 128 6 L 128 10 L 116 10 L 116 16 L 128 16 L 128 30 L 112 30 L 112 26 L 124 26 L 124 20 L 112 20 Z 
    M 134 26 L 138 26 L 138 30 L 134 30 Z
  "/>
</svg>
