<svg xmlns="http://www.w3.org/2000/svg" viewBox="0 0 176 36" role="img" aria-labelledby="title" shape-rendering="crispEdges">
  <title id="title">Caelis</title>
  <g fill="#f8fafc">
    <rect x="5" y="1" width="4" height="4"/>
    <rect x="10" y="1" width="4" height="4"/>
    <rect x="15" y="1" width="4" height="4"/>
    <rect x="20" y="1" width="4" height="4"/>
    <rect x="0" y="6" width="4" height="4"/>
    <rect x="0" y="11" width="4" height="4"/>
    <rect x="0" y="16" width="4" height="4"/>
    <rect x="0" y="21" width="4" height="4"/>
    <rect x="0" y="26" width="4" height="4"/>
    <rect x="5" y="31" width="4" height="4"/>
    <rect x="10" y="31" width="4" height="4"/>
    <rect x="15" y="31" width="4" height="4"/>
    <rect x="20" y="31" width="4" height="4"/>

    <rect x="33" y="1" width="4" height="4"/>
    <rect x="38" y="1" width="4" height="4"/>
    <rect x="43" y="1" width="4" height="4"/>
    <rect x="28" y="6" width="4" height="4"/>
    <rect x="48" y="6" width="4" height="4"/>
    <rect x="28" y="11" width="4" height="4"/>
    <rect x="48" y="11" width="4" height="4"/>
    <rect x="28" y="16" width="4" height="4"/>
    <rect x="33" y="16" width="4" height="4"/>
    <rect x="38" y="16" width="4" height="4"/>
    <rect x="43" y="16" width="4" height="4"/>
    <rect x="48" y="16" width="4" height="4"/>
    <rect x="28" y="21" width="4" height="4"/>
    <rect x="48" y="21" width="4" height="4"/>
    <rect x="28" y="26" width="4" height="4"/>
    <rect x="48" y="26" width="4" height="4"/>
    <rect x="28" y="31" width="4" height="4"/>
    <rect x="48" y="31" width="4" height="4"/>

    <rect x="56" y="1" width="4" height="4"/>
    <rect x="61" y="1" width="4" height="4"/>
    <rect x="66" y="1" width="4" height="4"/>
    <rect x="71" y="1" width="4" height="4"/>
    <rect x="76" y="1" width="4" height="4"/>
    <rect x="56" y="6" width="4" height="4"/>
    <rect x="56" y="11" width="4" height="4"/>
    <rect x="56" y="16" width="4" height="4"/>
    <rect x="61" y="16" width="4" height="4"/>
    <rect x="66" y="16" width="4" height="4"/>
    <rect x="71" y="16" width="4" height="4"/>
    <rect x="56" y="21" width="4" height="4"/>
    <rect x="56" y="26" width="4" height="4"/>
    <rect x="56" y="31" width="4" height="4"/>
    <rect x="61" y="31" width="4" height="4"/>
    <rect x="66" y="31" width="4" height="4"/>
    <rect x="71" y="31" width="4" height="4"/>
    <rect x="76" y="31" width="4" height="4"/>

    <rect x="84" y="1" width="4" height="4"/>
    <rect x="84" y="6" width="4" height="4"/>
    <rect x="84" y="11" width="4" height="4"/>
    <rect x="84" y="16" width="4" height="4"/>
    <rect x="84" y="21" width="4" height="4"/>
    <rect x="84" y="26" width="4" height="4"/>
    <rect x="84" y="31" width="4" height="4"/>
    <rect x="89" y="31" width="4" height="4"/>
    <rect x="94" y="31" width="4" height="4"/>
    <rect x="99" y="31" width="4" height="4"/>
    <rect x="104" y="31" width="4" height="4"/>

    <rect x="112" y="1" width="4" height="4"/>
    <rect x="117" y="1" width="4" height="4"/>
    <rect x="122" y="1" width="4" height="4"/>
    <rect x="127" y="1" width="4" height="4"/>
    <rect x="132" y="1" width="4" height="4"/>
    <rect x="122" y="6" width="4" height="4"/>
    <rect x="122" y="11" width="4" height="4"/>
    <rect x="122" y="16" width="4" height="4"/>
    <rect x="122" y="21" width="4" height="4"/>
    <rect x="122" y="26" width="4" height="4"/>
    <rect x="112" y="31" width="4" height="4"/>
    <rect x="117" y="31" width="4" height="4"/>
    <rect x="122" y="31" width="4" height="4"/>
    <rect x="127" y="31" width="4" height="4"/>
    <rect x="132" y="31" width="4" height="4"/>

    <rect x="145" y="1" width="4" height="4"/>
    <rect x="150" y="1" width="4" height="4"/>
    <rect x="155" y="1" width="4" height="4"/>
    <rect x="160" y="1" width="4" height="4"/>
    <rect x="140" y="6" width="4" height="4"/>
    <rect x="140" y="11" width="4" height="4"/>
    <rect x="145" y="16" width="4" height="4"/>
    <rect x="150" y="16" width="4" height="4"/>
    <rect x="155" y="16" width="4" height="4"/>
    <rect x="160" y="21" width="4" height="4"/>
    <rect x="160" y="26" width="4" height="4"/>
    <rect x="140" y="31" width="4" height="4"/>
    <rect x="145" y="31" width="4" height="4"/>
    <rect x="150" y="31" width="4" height="4"/>
    <rect x="155" y="31" width="4" height="4"/>
  </g>
  <rect x="170" y="31" width="4" height="4" fill="#f8fafc"/>
</svg>
